<?xml version="1.0" encoding="utf-8"?>
<!-- Generator: Adobe Illustrator 21.0.0, SVG Export Plug-In . SVG Version: 6.00 Build 0)  -->
<svg version="1.1" id="Слой_1" xmlns="http://www.w3.org/2000/svg" xmlns:xlink="http://www.w3.org/1999/xlink" x="0px" y="0px"
	 viewBox="0 0 1623 1180" style="enable-background:new 0 0 1623 1180;" xml:space="preserve">
<style type="text/css">
	.st0{fill:url(#SVGID_1_);}
	.st1{opacity:0.3;fill:#047738;}
	.st2{fill:#009245;}
	.st3{opacity:0.5;fill:#009245;enable-background:new    ;}
	.st4{opacity:0.3;}
	.st5{opacity:0.5;}
	.st6{fill:#39B54A;}
	.st7{fill:#7BD33F;}
	.st8{fill:url(#SVGID_2_);}
	.st9{display:none;}
	.st10{display:inline;}
	.st11{fill:#2F4C18;}
	.st12{display:inline;opacity:0.8;}
	.st13{fill:#C4C4C4;}
	.st14{opacity:0.5;fill:#C4C4C4;enable-background:new    ;}
	.st15{opacity:0.7;fill:#C4C4C4;enable-background:new    ;}
	.st16{fill:#D8D8D8;}
	.st17{fill:#FFFFFF;}
	.st18{fill:#D70000;}
	.st19{fill:#B80000;}
	.st20{fill:#FF0000;}
</style>
<g id="BACKGROUND">
	
		<linearGradient id="SVGID_1_" gradientUnits="userSpaceOnUse" x1="792.838" y1="602" x2="792.838" y2="70" gradientTransform="matrix(1 0 0 1 0 155)">
		<stop  offset="0.4393" style="stop-color:#AEE2FA"/>
		<stop  offset="1" style="stop-color:#00ADFF"/>
	</linearGradient>
	<rect x="-64.4" y="225" class="st0" width="1714.4" height="532"/>
</g>
<g id="OBJECTS">
	<g>
		<ellipse class="st1" cx="908.7" cy="778" rx="316.5" ry="122"/>
		<ellipse class="st1" cx="1268.5" cy="807" rx="262.6" ry="122"/>
		<ellipse class="st1" cx="428.3" cy="758" rx="284.5" ry="90.1"/>
		<g>
			<g>
				<path class="st2" d="M678.4,726.6c-5.9,1.3-11.9-1.2-15.1-5.9c-0.1,0-0.2,0.1-0.4,0.1c-0.1,0-0.2,0.1-0.4,0.1l0,0
					c-0.6,0.2-1.2,0.4-1.8,0.6c-3.6,0.9-13.8,2.4-25.4,4c-0.6,0.1-1.1,0.2-1.7,0.2c-0.6,0.1-1.2,0.2-1.7,0.2
					c-0.8,0.1-1.6,0.2-2.4,0.3c-2.1,0.3-4.3,0.6-6.4,0.9c-0.8,0.1-1.5,0.2-2.3,0.3c-1.4,0.2-2.8,0.4-4.2,0.6
					c-0.5,0.1-0.9,0.1-1.4,0.2c-3.2,0.4-6.3,0.9-9.1,1.3c-0.3,0-0.7,0.1-1,0.2c-0.4,0.1-0.9,0.1-1.3,0.2c-0.2,0-0.4,0.1-0.6,0.1
					c-0.8,0.1-1.5,0.2-2.3,0.3c-0.4,0.1-0.8,0.1-1.2,0.2c-0.2,0-0.4,0.1-0.6,0.1c-1.6,0.2-3,0.4-4.1,0.6l0,0h-0.1
					c-0.4,0.1-0.8,0.1-1.2,0.2c-1.1,0.2-1.9,0.3-2.4,0.5c-6,1.5-12.4-1.2-16.8-5.8c-0.6-0.6-1.1-1.2-1.6-1.9
					c-1.6-2.2-2.9-4.6-3.5-7.2c-0.1-0.3-0.2-0.7-0.2-1c-0.3-1.8-0.4-3.5-0.2-5.2c0.2-1.2,0.4-2.4,0.8-3.6c0.1-0.2,0.2-0.5,0.2-0.7
					c0.2-0.4,0.4-0.9,0.6-1.3c0.1-0.2,0.2-0.4,0.3-0.6c0.3-0.6,0.7-1.2,1.1-1.8c0.6-0.9,1.3-1.7,2.1-2.4c2.2-2.1,4.9-3.7,8.1-4.4
					c0.3-0.1,0.7-0.2,1-0.2c0.3-0.1,0.7-0.1,1.1-0.1c0.4,0,0.7-0.1,1-0.1c0.3,0,0.7,0,1,0c-0.4-0.5-0.7-1.1-0.8-1.5
					c0-0.2-0.1-0.4,0-0.6c0-0.1,0-0.1,0-0.2c0-0.1,0.1-0.2,0.1-0.3c0.1-0.1,0.1-0.2,0.2-0.2c0.1-0.1,0.1-0.1,0.2-0.2
					c0.5-0.3,1.1-0.1,1.7,0.5c0.1,0.1,0.1,0.1,0.2,0.2c0.1,0.1,0.1,0.1,0.2,0.2c0.1,0.2,0.2,0.3,0.3,0.5c0.2,0.2,0.3,0.5,0.5,0.8
					c0.1,0.1,0.1,0.2,0.2,0.3c0,0.1,0.1,0.2,0.2,0.3l0,0c-0.7-2.4-0.7-4.4,0.8-4.5c0.4,0,0.7,0.2,0.9,0.6c0.1,0.1,0.1,0.2,0.1,0.3
					c0.1,0.3,0.2,0.6,0.2,1c0,0.1,0,0.1,0,0.2c0.1-0.2,0.3-0.5,0.4-0.7c0.3-0.4,0.6-0.9,0.9-1.3c0.2-0.2,0.3-0.4,0.5-0.6
					c2.1-2.5,5-4.4,8.5-5.2c0.9-0.2,1.8-0.3,2.6-0.4c-0.2-4.1,2.5-7.8,6.6-8.8c0.4-0.1,0.8-0.2,1.3-0.2l0,0c0.1,0,0.3,0,0.4,0
					c0.9,0,1.8,0,2.7,0.3l0,0c0.2,0,0.4,0.1,0.5,0.2c0.3,0.1,0.6,0.2,0.9,0.4c0.2,0.1,0.5,0.2,0.7,0.4c-0.7-2-0.8-3.5,0.5-3.8
					c1.2-0.2,1.7,1.6,1.9,3.7c0.3-2.5,1-4.4,2.5-3.9c1.1,0.4,0.7,2.3-0.2,4.2c1.4-0.8,2.8-1.3,4.4-1.7c9.3-2.2,18.7,3.1,21.5,12.1
					c0.2-1.7,0.9-2.9,2-2.6c1.2,0.3,0.9,2.2,0.2,4.1c1.3-2.2,2.8-3.6,3.9-2.5c0.5,0.5,0.3,1.3-0.4,2.1c7.9-1.3,15.5,3,18.5,10.2
					c3-0.6,5.9-0.2,8.5,0.9c4.1,1.8,7.3,5.4,8.3,10C691,717.1,686.2,724.8,678.4,726.6z"/>
				<path class="st3" d="M636,719.8c0,2-0.2,3.9-0.6,5.7c-0.6,0.1-1.1,0.2-1.7,0.2c-0.6,0.1-1.2,0.2-1.7,0.2
					c-0.8,0.1-1.6,0.2-2.4,0.3c-2.1,0.3-4.3,0.6-6.4,0.9c-0.8,0.1-1.5,0.2-2.3,0.3c-1.4,0.2-2.8,0.4-4.2,0.6
					c-0.5,0.1-0.9,0.1-1.4,0.2c-3.2,0.4-6.3,0.9-9.1,1.3c-0.3,0-0.7,0.1-1,0.2c-0.4,0.1-0.9,0.1-1.3,0.2c-0.2,0-0.4,0.1-0.6,0.1
					c-0.8,0.1-1.5,0.2-2.3,0.3c-0.4,0.1-0.8,0.1-1.2,0.2c-0.2,0-0.4,0.1-0.6,0.1c-1.6,0.2-3,0.4-4.1,0.6c0,0,0,0-0.1,0
					c-0.4,0.1-0.8,0.1-1.2,0.2c-1.1,0.2-1.9,0.3-2.4,0.5c-6,1.5-12.4-1.2-16.8-5.8c-0.6-0.6-1.1-1.2-1.6-1.9
					c-1.6-2.2-2.9-4.6-3.5-7.2c-0.1-0.3-0.2-0.7-0.2-1c-0.3-1.8-0.3-3.5-0.1-5.2c0.2-1.2,0.4-2.4,0.8-3.6c0.1-0.2,0.2-0.5,0.2-0.7
					c0.2-0.4,0.4-0.9,0.6-1.3c0.1-0.2,0.2-0.4,0.3-0.6c0.3-0.6,0.7-1.2,1.1-1.8c0.6-0.9,1.3-1.7,2.1-2.4c2.2-2.1,4.9-3.7,8.1-4.4
					c0.3-0.1,0.7-0.2,1-0.2c0.3-0.1,0.7-0.1,1.1-0.1c0.4,0,0.7-0.1,1-0.1c0.3,0,0.7,0,1,0l0,0c-0.4-0.5-0.7-1.1-0.8-1.5
					c0-0.2-0.1-0.4,0-0.6c0-0.1,0-0.1,0-0.2c0-0.1,0.1-0.2,0.1-0.3c0.1-0.1,0.1-0.2,0.2-0.2c0.1-0.1,0.1-0.1,0.2-0.2
					c0.5-0.3,1.1-0.1,1.7,0.5c0.1,0.1,0.1,0.1,0.2,0.2c0.1,0.1,0.1,0.1,0.2,0.2c0.1,0.1,0.2,0.3,0.3,0.5c0.2,0.2,0.3,0.5,0.5,0.8
					c0.1,0.1,0.1,0.2,0.2,0.3c0,0.1,0.1,0.2,0.2,0.3c-0.7-2.4-0.7-4.4,0.8-4.5c0.4,0,0.7,0.2,0.9,0.6c0.1,0.1,0.1,0.2,0.1,0.3
					c0.1,0.3,0.2,0.6,0.2,1c0,0.1,0,0.1,0,0.2l0,0c0.1-0.2,0.3-0.5,0.4-0.7c0.3-0.4,0.6-0.9,0.9-1.3c0.2-0.2,0.3-0.4,0.5-0.6
					c1,0.8,1.9,1.6,2.8,2.6c-0.3-1.8-0.1-3.3,1.2-3.5c2.2-0.4,2.9,2.5,2.8,6.2c0.7-2.9,1.8-5.5,3.5-5c1.6,0.6,1.5,2.3,0.6,4.4
					c2-0.5,4-0.8,6.1-0.8c7.8,0,14.9,3.5,19.6,9C633.7,707.5,636,713.4,636,719.8z"/>
			</g>
			<g>
				<path class="st2" d="M959.9,723.8c-0.1,0.3-0.2,0.6-0.3,0.9c0,0.1-0.1,0.3-0.1,0.4c-0.1,0.3-0.2,0.7-0.4,1
					c-0.2,0.4-0.4,0.8-0.6,1.3c-0.2,0.3-0.3,0.7-0.5,1c-5-1.3-9.1-4.6-11.6-8.9c-2.3,2-5.1,3.5-8,4.4c-2.9,0.9-6,1.1-9.2,0.6
					c-2.1-0.3-4-0.9-5.8-1.8c0,0.3-0.1,0.6-0.1,0.9c-0.1,0.5-0.2,1-0.3,1.5c-0.3-0.8-0.5-1.6-0.6-2.4c-2.1,0.2-4.2,0.1-6.3-0.5
					c-5.4-1.4-9.6-5.2-11.8-10c-4.4,3.1-10.1,4.5-15.8,3.2c-0.2,0-0.5-0.1-0.7-0.2c-1.1-0.3-2.2-0.7-3.2-1.1
					c-0.7-0.3-1.4-0.7-2.1-1.1c0,0.3-0.1,0.5-0.2,0.8c-2.6,10-12.8,16-22.8,13.5c-10-2.6-16-12.8-13.5-22.8c0.2-0.9,0.5-1.7,0.9-2.5
					c3.3-8,11.9-12.8,20.6-11.2c-0.7-0.9-1-1.8-0.4-2.3c1.2-1.1,2.8,0.4,4.2,2.8c-0.7-2.2-1-4.2,0.3-4.5c1.3-0.3,1.9,1,2.2,2.9
					c3.3-9.8,13.6-15.5,23.8-12.9c0.8,0.2,1.6,0.5,2.4,0.8c0.2,0.1,0.5,0.2,0.7,0.3c0.1,0,0.1,0,0.2,0.1c0.3,0.1,0.5,0.2,0.8,0.4
					c0.3,0.1,0.5,0.3,0.8,0.4c-0.9-2.1-1.4-4.2-0.1-4.6c1.6-0.5,2.4,1.5,2.6,4.3c0.3-2.2,0.9-4.3,2.1-4c1.4,0.3,1.3,2,0.5,4.2
					c2.1-1.2,4.6-1.6,7.1-1c0.3,0.1,0.5,0.1,0.8,0.2c0.3,0.1,0.6,0.2,0.9,0.4c0.2,0.1,0.4,0.2,0.6,0.3l0,0c0.2,0.1,0.4,0.3,0.6,0.4
					l0,0c0.1,0.1,0.3,0.2,0.4,0.3c0.3,0.2,0.5,0.4,0.8,0.6c0.1,0.1,0.2,0.2,0.3,0.3c0.2,0.2,0.5,0.5,0.6,0.7
					c0.1,0.1,0.2,0.3,0.3,0.4c0,0.1,0.1,0.1,0.1,0.2c0.1,0.2,0.2,0.3,0.3,0.5c0.1,0.2,0.2,0.4,0.3,0.6c0.2,0.4,0.4,0.8,0.5,1.2
					c0.1,0.2,0.1,0.4,0.2,0.6c0.1,0.2,0.1,0.4,0.1,0.6c0,0.1,0,0.2,0.1,0.4c0,0,0,0,0,0.1c0,0.2,0.1,0.4,0.1,0.5v0.1
					c0,0.2,0,0.5,0,0.7s0,0.4,0,0.6c0.9,0.1,1.9,0.2,2.9,0.5c0.6,0.2,1.1,0.3,1.7,0.5c4.2,1.5,7.5,4.5,9.5,8.3
					c0.2-1.4,0.6-2.4,1.5-2.3c1.6,0.1,1.6,2.3,0.9,5c1.1-2,2.4-3.7,3.5-2.9c1,0.7,0.7,1.9-0.4,3.3c1.5,0,3,0.2,4.6,0.6
					c8.4,2.2,14.1,9.6,14.4,17.9C960.5,720.1,960.3,721.9,959.9,723.8z"/>
				<g class="st4">
					<path class="st2" d="M959.9,723.8c-0.1,0.3-0.2,0.6-0.3,0.9c0,0.1-0.1,0.3-0.1,0.4c-0.1,0.3-0.2,0.7-0.4,1
						c-0.2,0.4-0.4,0.8-0.6,1.3c-0.2,0.3-0.3,0.7-0.5,1c-0.5,1-1.2,1.9-1.9,2.7c-4.6,5.6-12.2,8.4-19.7,6.5c-3-0.8-5.7-2.3-7.9-4.2
						c2.3-1,4.4-2.4,6.2-4.2c1.5-1.5,2.8-3.3,3.7-5.3c0.5-1,0.9-2.2,1.2-3.3c0.5-2.1,0.7-4.2,0.5-6.2c-0.6-8-6.2-15.1-14.4-17.2
						c-1.5-0.4-3.1-0.6-4.6-0.6c1.1-1.4,1.4-2.6,0.4-3.3c-1.1-0.7-2.4,0.9-3.5,2.9c0.2-0.6,0.3-1.2,0.4-1.7c0.3-1.9,0-3.2-1.3-3.3
						c-0.9-0.1-1.3,0.9-1.5,2.3c-0.3-0.6-0.7-1.2-1-1.7c-2.3-3.4-5.8-6-10.1-7.1c-1-0.2-1.9-0.4-2.9-0.5c0.2-2.6-0.8-5.1-2.4-7
						c0.3,0.1,0.6,0.2,0.9,0.3c0.2,0.1,0.5,0.2,0.7,0.3c0.1,0,0.1,0,0.2,0.1c0.3,0.1,0.5,0.2,0.8,0.4c0.3,0.1,0.5,0.3,0.8,0.4
						c-0.9-2.1-1.4-4.2-0.1-4.6c1.6-0.5,2.4,1.5,2.6,4.3c0.3-2.2,0.9-4.3,2.1-4c1.4,0.3,1.3,2,0.5,4.2c2.1-1.2,4.6-1.6,7.1-1
						c0.3,0.1,0.5,0.1,0.8,0.2c0.3,0.1,0.6,0.2,0.9,0.4c0.2,0.1,0.4,0.2,0.6,0.3l0,0c0.2,0.1,0.4,0.3,0.6,0.4l0,0
						c0.1,0.1,0.3,0.2,0.4,0.3c0.3,0.2,0.5,0.4,0.8,0.6c0.1,0.1,0.2,0.2,0.3,0.3c0.2,0.2,0.5,0.5,0.6,0.7c0.1,0.1,0.2,0.3,0.3,0.4
						c0,0.1,0.1,0.1,0.1,0.2c0.1,0.2,0.2,0.3,0.3,0.5s0.2,0.4,0.3,0.6c0.2,0.4,0.4,0.8,0.5,1.2c0.1,0.2,0.1,0.4,0.2,0.6
						c0.1,0.2,0.1,0.4,0.1,0.6c0,0.1,0,0.2,0.1,0.4c0,0,0,0,0,0.1c0,0.2,0.1,0.4,0.1,0.5v0.1c0,0.2,0,0.5,0,0.7s0,0.4,0,0.6
						c0.9,0.1,1.9,0.2,2.9,0.5c0.6,0.2,1.1,0.3,1.7,0.5c4.2,1.5,7.5,4.5,9.5,8.3c0.2-1.4,0.6-2.4,1.5-2.3c1.6,0.1,1.6,2.3,0.9,5
						c1.1-2,2.4-3.7,3.5-2.9c1,0.7,0.7,1.9-0.4,3.3c1.5,0,3,0.2,4.6,0.6c8.4,2.2,14.1,9.6,14.4,17.9
						C960.5,720.1,960.3,721.9,959.9,723.8z"/>
				</g>
				<g class="st5">
					<path class="st2" d="M959.9,723.8c-0.1,0.3-0.2,0.6-0.3,0.9c0,0.1-0.1,0.3-0.1,0.4c-0.1,0.3-0.2,0.7-0.4,1
						c-0.2,0.4-0.4,0.8-0.6,1.3c-0.2,0.3-0.3,0.7-0.5,1c-5-1.3-9.1-4.6-11.6-8.9c-2.3,2-5.1,3.5-8,4.4c-2.9,0.9-6,1.1-9.2,0.6
						c-2.1-0.3-4-0.9-5.8-1.8c0,0.3-0.1,0.6-0.1,0.9c-0.1,0.5-0.2,1-0.3,1.5c-0.3-0.8-0.5-1.6-0.6-2.4c-2.1,0.2-4.2,0.1-6.3-0.5
						c-5.4-1.4-9.6-5.2-11.8-10c-4.4,3.1-10.1,4.5-15.8,3.2c-0.2,0-0.5-0.1-0.7-0.2c-1.1-0.3-2.2-0.7-3.2-1.1c1-2.9,2.6-5.5,4.7-7.7
						c4-4.1,9.8-6.4,15.9-5.9c-0.8-0.9-1.2-1.8-0.6-2.4c1.2-1.3,3,0.2,4.8,2.6c-1-2.2-1.5-4.4-0.2-4.8c1.3-0.4,2.1,0.8,2.6,2.8
						c0.6-2.5,1.6-4.9,3-6.9c1.8-2.8,4.2-5.1,7.1-6.7c0,0.1,0,0.2,0.1,0.4c0,0,0,0,0,0.1c0,0.2,0.1,0.4,0.1,0.5v0.1
						c0,0.2,0,0.5,0,0.7s0,0.4,0,0.6c0.9,0.1,1.9,0.2,2.9,0.5c0.6,0.2,1.1,0.3,1.7,0.5c4.2,1.5,7.5,4.5,9.5,8.3
						c0.2-1.4,0.6-2.4,1.5-2.3c1.6,0.1,1.6,2.3,0.9,5c1.1-2,2.4-3.7,3.5-2.9c1,0.7,0.7,1.9-0.4,3.3c1.5,0,3,0.2,4.6,0.6
						c8.4,2.2,14.1,9.6,14.4,17.9C960.5,720.1,960.3,721.9,959.9,723.8z"/>
				</g>
			</g>
		</g>
		<ellipse class="st2" cx="1116.2" cy="721.7" rx="17.2" ry="15.8"/>
		<ellipse class="st2" cx="1067.4" cy="721.7" rx="17.2" ry="15.8"/>
		<path class="st2" d="M1181.9,728.4c-0.1,0.3-0.2,0.6-0.3,0.9c0,0.1-0.1,0.3-0.1,0.4c-0.1,0.3-0.2,0.7-0.4,1
			c-0.2,0.4-0.4,0.8-0.6,1.3c-0.2,0.3-0.3,0.7-0.5,1c-5-1.3-9.1-4.6-11.6-8.9c-2.3,2-5.1,3.5-8,4.4s-6,1.1-9.2,0.6
			c-2.1-0.3-4-0.9-5.8-1.8c0,0.3-0.1,0.6-0.1,0.9c-0.1,0.5-0.2,1-0.3,1.5c-0.3-0.8-0.5-1.6-0.6-2.4c-2.1,0.2-4.2,0.1-6.3-0.5
			c-5.4-1.4-9.6-5.2-11.8-10c-4.4,3.1-10.1,4.5-15.8,3.2c-0.2,0-0.5-0.1-0.7-0.2c-1.1-0.3-2.2-0.7-3.2-1.1c-0.7-0.3-1.4-0.7-2.1-1.1
			c0,0.3-0.1,0.5-0.2,0.8c-2.6,10-12.8,16-22.8,13.5c-10-2.6-16-12.8-13.5-22.8c0.2-0.9,0.5-1.7,0.9-2.5c3.3-8,11.9-12.8,20.6-11.2
			c-0.7-0.9-1-1.8-0.4-2.3c1.2-1.1,2.8,0.4,4.2,2.8c-0.7-2.2-1-4.2,0.3-4.5c1.3-0.3,1.9,1,2.2,2.9c3.3-9.8,13.6-15.5,23.8-12.9
			c0.8,0.2,1.6,0.5,2.4,0.8c0.2,0.1,0.5,0.2,0.7,0.3c0.1,0,0.1,0,0.2,0.1c0.3,0.1,0.5,0.2,0.8,0.4c0.3,0.1,0.5,0.3,0.8,0.4
			c-0.9-2.1-1.4-4.2-0.1-4.6c1.6-0.5,2.4,1.5,2.6,4.3c0.3-2.2,0.9-4.3,2.1-4c1.4,0.3,1.3,2,0.5,4.2c2.1-1.2,4.6-1.6,7.1-1
			c0.3,0.1,0.5,0.1,0.8,0.2c0.3,0.1,0.6,0.2,0.9,0.4c0.2,0.1,0.4,0.2,0.6,0.3l0,0c0.2,0.1,0.4,0.3,0.6,0.4l0,0
			c0.1,0.1,0.3,0.2,0.4,0.3c0.3,0.2,0.5,0.4,0.8,0.6c0.1,0.1,0.2,0.2,0.3,0.3c0.2,0.2,0.5,0.5,0.6,0.7c0.1,0.1,0.2,0.3,0.3,0.4
			c0,0.1,0.1,0.1,0.1,0.2c0.1,0.2,0.2,0.3,0.3,0.5c0.1,0.2,0.2,0.4,0.3,0.6c0.2,0.4,0.4,0.8,0.5,1.2c0.1,0.2,0.1,0.4,0.2,0.6
			c0.1,0.2,0.1,0.4,0.1,0.6c0,0.1,0,0.2,0.1,0.4c0,0,0,0,0,0.1c0,0.2,0.1,0.4,0.1,0.5v0.1c0,0.2,0,0.5,0,0.7s0,0.4,0,0.6
			c0.9,0.1,1.9,0.2,2.9,0.5c0.6,0.2,1.1,0.3,1.7,0.5c4.2,1.5,7.5,4.5,9.5,8.3c0.2-1.4,0.6-2.4,1.5-2.3c1.6,0.1,1.6,2.3,0.9,5
			c1.1-2,2.4-3.7,3.5-2.9c1,0.7,0.7,1.9-0.4,3.3c1.5,0,3,0.2,4.6,0.6c8.4,2.2,14.1,9.6,14.4,17.9
			C1182.5,724.7,1182.3,726.5,1181.9,728.4z"/>
		<path class="st2" d="M1150.8,725.3c0.3-8.3,6-15.7,14.4-17.9c1.6-0.4,3.1-0.6,4.6-0.6c-1.1-1.4-1.4-2.6-0.4-3.3
			c1.1-0.8,2.4,0.9,3.5,2.9c-0.7-2.7-0.7-4.9,0.9-5c0.9-0.1,1.3,0.9,1.5,2.3c2-3.8,5.3-6.8,9.5-8.3c0.6-0.2,1.1-0.3,1.7-0.5
			c1-0.3,2-0.4,2.9-0.5c0-0.2,0-0.4,0-0.6s0-0.5,0-0.7V693c0-0.1,0.1-0.3,0.1-0.5c0-0.1,0-0.1,0-0.1c0.1-0.2,0.1-0.3,0.1-0.4
			c0-0.2,0-0.4,0.1-0.6c0.1-0.2,0.1-0.4,0.2-0.6c0.1-0.4,0.3-0.8,0.5-1.2c0.1-0.2,0.2-0.4,0.3-0.6s0.2-0.3,0.3-0.5
			c0-0.1,0.1-0.1,0.1-0.2c0.1-0.1,0.2-0.3,0.3-0.4c0.1-0.2,0.4-0.5,0.6-0.7c0.1-0.1,0.2-0.2,0.3-0.3c0.3-0.2,0.5-0.4,0.8-0.6
			c0.1-0.1,0.3-0.2,0.4-0.3l0,0c0.2-0.1,0.4-0.3,0.6-0.4l0,0c0.2-0.1,0.4-0.2,0.6-0.3c0.3-0.2,0.6-0.3,0.9-0.4
			c0.3-0.1,0.5-0.1,0.8-0.2c2.5-0.6,5-0.2,7.1,1c-0.8-2.2-0.9-3.9,0.5-4.2c1.2-0.3,1.8,1.8,2.1,4c0.2-2.8,1-4.8,2.6-4.3
			c1.3,0.4,0.8,2.5-0.1,4.6c0.3-0.1,0.5-0.3,0.8-0.4c0.3-0.2,0.5-0.3,0.8-0.4c0.1-0.1,0.1-0.1,0.2-0.1c0.2-0.1,0.5-0.2,0.7-0.3
			c0.8-0.3,1.6-0.6,2.4-0.8c10.2-2.6,20.5,3.1,23.8,12.9c0.3-1.9,0.9-3.2,2.2-2.9c1.3,0.3,1,2.3,0.3,4.5c1.4-2.4,3-3.9,4.2-2.8
			c0.6,0.5,0.3,1.4-0.4,2.3c8.7-1.6,17.3,3.2,20.6,11.2c0.4,0.8,0.7,1.6,0.9,2.5c2.5,10-3.5,20.2-13.5,22.8
			c-10,2.5-20.2-3.5-22.8-13.5c-0.1-0.3-0.2-0.5-0.2-0.8c-0.7,0.4-1.4,0.8-2.1,1.1c-1,0.4-2.1,0.8-3.2,1.1c-0.2,0.1-0.5,0.2-0.7,0.2
			c-5.7,1.3-11.4-0.1-15.8-3.2c-2.2,4.8-6.4,8.6-11.8,10c-2.1,0.6-4.2,0.7-6.3,0.5c-0.1,0.8-0.3,1.6-0.6,2.4c-0.1-0.5-0.2-1-0.3-1.5
			c0-0.3-0.1-0.6-0.1-0.9c-1.8,0.9-3.7,1.5-5.8,1.8c-3.2,0.5-6.3,0.3-9.2-0.6s-5.7-2.4-8-4.4c-2.5,4.3-6.6,7.6-11.6,8.9
			c-0.2-0.3-0.3-0.7-0.5-1c-0.2-0.5-0.4-0.9-0.6-1.3c-0.2-0.3-0.3-0.7-0.4-1c0-0.1-0.1-0.3-0.1-0.4c-0.1-0.3-0.2-0.6-0.3-0.9
			C1150.8,728.9,1150.6,727.1,1150.8,725.3z"/>
		<path class="st6" d="M1224,709.5v-0.1c-0.6-0.2-1.2-0.3-1.8-0.5c-1.5-0.3-3.1-0.3-4.7-0.2c0.7-1.1,1-2.1,0.5-2.8
			c-0.1-0.3-0.3-0.5-0.7-0.7c-1.2-0.5-2.3,1-3.2,2.9c0.3-1.6,0.2-2.9-0.2-3.7c-0.3-0.6-0.7-1-1.4-0.9c-0.9,0-1.3,1.1-1.3,2.6
			c-2.8-4.3-7.4-7.4-12.8-8.2c-1-0.2-2-0.2-3-0.2c-0.1-1.5-0.5-2.9-1.1-4.1c-1.4-2.9-4.1-5-7.6-5.6c-2.7-0.4-5.3,0.3-7.3,1.7
			c0.3-1.4,0.4-2.6,0-3.4c-0.2-0.5-0.6-0.8-1.2-0.9c-1.4-0.1-1.8,2-1.9,4.3c-0.2-1-0.5-1.9-0.9-2.6c-0.6-1.3-1.4-2-2.4-1.5
			c-1.2,0.4-0.7,2.2,0.2,4.1c0.1,0.2,0.2,0.5,0.4,0.7c-0.5-0.1-0.9-0.3-1.4-0.5c-0.2,0-0.5-0.1-0.7-0.2c-0.2-0.1-0.5-0.1-0.7-0.2
			c0.1,0.1,0.2,0.2,0.2,0.2c0,0-0.1,0-0.1,0c-0.8-0.3-1.6-0.5-2.5-0.6c-4.1-0.7-8.1-0.1-11.7,1.5c-3.1,1.3-5.9,3.4-8,6
			c-2.1,2.5-3.5,5.4-4.3,8.7c-0.5-2-1.3-3.2-2.6-2.8c-1.3,0.4-0.8,2.6,0.2,4.8c-1.8-2.4-3.6-3.9-4.8-2.6c-0.6,0.6-0.2,1.5,0.6,2.4
			c-4-0.3-7.9,0.6-11.2,2.4c-3.4,1.8-6.1,4.6-8,8c-1.1,2-1.8,4.2-2.2,6.5c-1.7,10.9,5.8,21.1,16.7,22.8s21.1-5.8,22.8-16.7
			c0-0.3,0.1-0.6,0.1-0.9c1.8,0.9,3.7,1.5,5.8,1.8c1,0.1,2,0.2,3,0.2c5.3,0.1,10.3-1.8,14.2-5.2c1.7,3,4.2,5.5,7.2,7.2
			c0.3,0.1,0.5,0.3,0.8,0.4c0.1,13.5,13.3,24.4,29.6,24.4c16.4,0,29.6-11,29.6-24.6C1246.3,721.9,1236.8,712.2,1224,709.5z"/>
		<path class="st6" d="M994,707.5v-0.1c-0.6-0.2-1.2-0.3-1.8-0.5c-1.5-0.3-3.1-0.3-4.7-0.2c0.7-1.1,1-2.1,0.5-2.8
			c-0.1-0.3-0.3-0.5-0.7-0.7c-1.2-0.5-2.3,1-3.2,2.9c0.3-1.6,0.2-2.9-0.2-3.7c-0.3-0.6-0.7-1-1.4-0.9c-0.9,0-1.3,1.1-1.3,2.6
			c-2.8-4.3-7.4-7.4-12.8-8.2c-1-0.2-2-0.2-3-0.2c-0.1-1.5-0.5-2.9-1.1-4.1c-1.4-2.9-4.1-5-7.6-5.6c-2.7-0.4-5.3,0.3-7.3,1.7
			c0.3-1.4,0.4-2.6,0-3.4c-0.2-0.5-0.6-0.8-1.2-0.9c-1.4-0.1-1.8,2-1.9,4.3c-0.2-1-0.5-1.9-0.9-2.6c-0.6-1.3-1.4-2-2.4-1.5
			c-1.2,0.4-0.7,2.2,0.2,4.1c0.1,0.2,0.2,0.5,0.4,0.7c-0.5-0.1-0.9-0.3-1.4-0.5c-0.2,0-0.5-0.1-0.7-0.2c-0.2-0.1-0.5-0.1-0.7-0.2
			c0.1,0.1,0.2,0.2,0.2,0.2c0,0-0.1,0-0.1,0c-0.8-0.3-1.6-0.5-2.5-0.6c-4.1-0.7-8.1-0.1-11.7,1.5c-3.1,1.3-5.9,3.4-8,6
			c-2.1,2.5-3.5,5.4-4.3,8.7c-0.5-2-1.3-3.2-2.6-2.8c-1.3,0.4-0.8,2.6,0.2,4.8c-1.8-2.4-3.6-3.9-4.8-2.6c-0.6,0.6-0.2,1.5,0.6,2.4
			c-4-0.3-7.9,0.6-11.2,2.4c-3.4,1.8-6.1,4.6-8,8c-1.1,2-1.8,4.2-2.2,6.5c-1.7,10.9,5.8,21.1,16.7,22.8c10.9,1.7,21.1-5.8,22.8-16.7
			c0-0.3,0.1-0.6,0.1-0.9c1.8,0.9,3.7,1.5,5.8,1.8c1,0.1,2,0.2,3,0.2c5.3,0.1,10.3-1.8,14.2-5.2c1.7,3,4.2,5.5,7.2,7.2
			c0.3,0.1,0.5,0.3,0.8,0.4c0.1,13.5,13.3,24.4,29.6,24.4c16.4,0,29.6-11,29.6-24.6C1016.3,719.9,1006.8,710.2,994,707.5z"/>
		<path class="st7" d="M1016.3,728.3L1011,1180H494V730c69.3-17.4,156-27.7,250-27.7S938.4,723.9,1016.3,728.3z"/>
		<path class="st2" d="M272.8,735.3c-5.9,1.3-11.9,7.8-15.1,3.1c-0.1,0-0.2-8.9-0.4-8.9c-0.1,0-0.2,0.1-0.4,0.1l0,0
			c-0.6,0.2-1.2,7.4-1.8,7.6c-3.6,0.9-13.8-4.6-25.4-3c-0.6,0.1-1.1,0.2-1.7,0.2c-0.6,0.1-1.2,0.2-1.7,0.2c-0.8,0.1-1.6,0.2-2.4,0.3
			c-2.1,0.3-4.3,0.6-6.4,0.9c-0.8,0.1-1.5,0.2-2.3,0.3c-1.4,0.2-2.8,0.4-4.2,0.6c-0.5,0.1-0.9,0.1-1.4,0.2c-3.2,0.4-6.3,0.9-9.1,1.3
			c-0.3,0-0.7,0.1-1,0.2c-0.4,0.1-0.9,0.1-1.3,0.2c-0.2,0-0.4,0.1-0.6,0.1c-0.8,0.1-1.5,0.2-2.3,0.3c-0.4,0.1-0.8,0.1-1.2,0.2
			c-0.2,0-0.4,0.1-0.6,0.1c-1.6,0.2-3,0.4-4.1,0.6l0,0h-0.1c-0.4,0.1-0.8,0.1-1.2,0.2c-1.1,0.2-1.9,0.3-2.4,0.5
			c-6,1.5-12.4-1.2-16.8-5.8c-0.6-0.6-1.1-1.2-1.6-1.9c-1.6-2.2-2.9-4.6-3.5-7.2c-0.1-0.3-0.2-0.7-0.2-1c-0.3-1.8-0.4-3.5-0.2-5.2
			c0.2-1.2,0.4-2.4,0.8-3.6c0.1-0.2,0.2-0.5,0.2-0.7c0.2-0.4,0.4-0.9,0.6-1.3c0.1-0.2,0.2-0.4,0.3-0.6c0.3-0.6,0.7-1.2,1.1-1.8
			c0.6-0.9,1.3-1.7,2.1-2.4c2.2-2.1,4.9-3.7,8.1-4.4c0.3-0.1,0.7-0.2,1-0.2c0.3-0.1,0.7-0.1,1.1-0.1c0.4,0,0.7-0.1,1-0.1s0.7,0,1,0
			c-0.4-0.5-0.7-1.1-0.8-1.5c0-0.2-0.1-0.4,0-0.6c0-0.1,0-0.1,0-0.2c0-0.1,0.1-0.2,0.1-0.3c0.1-0.1,0.1-0.2,0.2-0.2
			c0.1-0.1,0.1-0.1,0.2-0.2c0.5-0.3,1.1-0.1,1.7,0.5c0.1,0.1,0.1,0.1,0.2,0.2c0.1,0.1,0.1,0.1,0.2,0.2c0.1,0.2,0.2,0.3,0.3,0.5
			c0.2,0.2,0.3,0.5,0.5,0.8c0.1,0.1,0.1,0.2,0.2,0.3c0,0.1,0.1,0.2,0.2,0.3l0,0c-0.7-2.4-0.7-4.4,0.8-4.5c0.4,0,0.7,0.2,0.9,0.6
			c0.1,0.1,0.1,0.2,0.1,0.3c0.1,0.3,0.2,0.6,0.2,1c0,0.1,0,0.1,0,0.2c0.1-0.2,0.3-0.5,0.4-0.7c0.3-0.4,0.6-0.9,0.9-1.3
			c0.2-0.2,0.3-0.4,0.5-0.6c2.1-2.5,5-4.4,8.5-5.2c0.9-0.2,1.8-0.3,2.6-0.4c-0.2-4.1,2.5-7.8,6.6-8.8c0.4-0.1,0.8-0.2,1.3-0.2l0,0
			c0.1,0,0.3,0,0.4,0c0.9,0,1.8,0,2.7,0.3l0,0c0.2,0,0.4,0.1,0.5,0.2c0.3,0.1,0.6,0.2,0.9,0.4c0.2,0.1,0.5,0.2,0.7,0.4
			c-0.7-2-0.8-3.5,0.5-3.8c1.2-0.2,1.7,1.6,1.9,3.7c0.3-2.5,1-4.4,2.5-3.9c1.1,0.4,0.7,2.3-0.2,4.2c1.4-0.8,2.8-1.3,4.4-1.7
			c9.3-2.2,18.7,3.1,21.5,12.1c0.2-1.7,0.9-2.9,2-2.6c1.2,0.3,0.9,2.2,0.2,4.1c1.3-2.2,2.8-3.6,3.9-2.5c0.5,0.5,0.3,1.3-0.4,2.1
			c7.9-1.3,15.5,3,18.5,10.2c3-0.6,5.9-0.2,8.5,0.9c4.1,1.8,7.3,5.4,8.3,10C285.4,725.8,280.6,733.5,272.8,735.3z"/>
		<path class="st6" d="M214.7,712.6c-4.5-3.6-10.1-5.8-16.3-5.8c-2.1,0-4.1,0.2-6.1,0.7c0.9-2.1,0.9-3.9-0.6-4.4
			c-0.6-0.2-1.2,0.1-1.7,0.6c-0.8,0.8-1.4,2.4-1.8,4.1c0.1-3.5-0.7-6.3-2.8-5.9c-0.3,0.1-0.6,0.2-0.8,0.5c-0.6,0.6-0.7,1.6-0.6,2.9
			c-1.2-1.3-2.5-2.4-4-3.4c-3.8-2.6-8.4-4.1-13.4-4.1c-1.3,0-2.6,0.1-3.9,0.3c-1.1-5.8-6.3-10.3-12.5-10.3c-3.5,0-6.6,1.3-8.9,3.6
			c0.3-3-0.2-5.3-2.1-5.2c-0.4,0-0.7,0.2-0.9,0.4c-0.9,0.8-1,2.8-0.7,5.1c-1.3-3.3-2.9-5.4-4.7-4.3c-0.1,0.1-0.2,0.2-0.3,0.3
			c-1.2,1.1,0.1,3.4,1.8,5.6c-2.1-0.6-4.4-0.9-6.7-0.9c-0.4,0-0.7,0-1,0s-0.6,0-0.9,0c-0.6,0.1-1.2,0.1-1.8,0.2
			c-12.4,1.7-22.1,11.9-23,24.5c-1-2.4-2.2-3.8-3.8-3c-1.6,0.8-0.5,3.5,1.1,6c-2.6-2.7-5.2-4.1-6.4-2.3c-0.6,0.9,0.1,1.9,1.3,2.9
			c-0.1,0-0.2,0-0.4,0c-20.7,0.1-37.4,11.4-37.4,25.2c0,13.9,16.9,25.2,37.8,25.2c3.1,0,6.1-0.3,9-0.7c24.1-2.2,86.8-11.8,95.9-11.8
			c13.5,0,24.5-10.4,25.7-23.5c0.1-0.8,0.1-1.5,0.1-2.3C224,724.7,220.3,717.5,214.7,712.6z"/>
		<path class="st2" d="M486.2,733.1c-5.9,1.3-11.9,7.8-15.1,3.1c-0.1,0-0.2-8.9-0.4-8.9c-0.1,0-0.2,0.1-0.4,0.1l0,0
			c-0.6,0.2-1.2,7.4-1.8,7.6c-3.6,0.9-13.8-4.6-25.4-3c-0.6,0.1-1.1,0.2-1.7,0.2c-0.6,0.1-1.2,0.2-1.7,0.2c-0.8,0.1-1.6,0.2-2.4,0.3
			c-2.1,0.3-4.3,0.6-6.4,0.9c-0.8,0.1-1.5,0.2-2.3,0.3c-1.4,0.2-2.8,0.4-4.2,0.6c-0.5,0.1-0.9,0.1-1.4,0.2c-3.2,0.4-6.3,0.9-9.1,1.3
			c-0.3,0-0.7,0.1-1,0.2c-0.4,0.1-0.9,0.1-1.3,0.2c-0.2,0-0.4,0.1-0.6,0.1c-0.8,0.1-1.5,0.2-2.3,0.3c-0.4,0.1-0.8,0.1-1.2,0.2
			c-0.2,0-0.4,0.1-0.6,0.1c-1.6,0.2-3,0.4-4.1,0.6l0,0h-0.1c-0.4,0.1-0.8,0.1-1.2,0.2c-1.1,0.2-1.9,0.3-2.4,0.5
			c-6,1.5-12.4-1.2-16.8-5.8c-0.6-0.6-1.1-1.2-1.6-1.9c-1.6-2.2-2.9-4.6-3.5-7.2c-0.1-0.3-0.2-0.7-0.2-1c-0.3-1.8-0.4-3.5-0.2-5.2
			c0.2-1.2,0.4-2.4,0.8-3.6c0.1-0.2,0.2-0.5,0.2-0.7c0.2-0.4,0.4-0.9,0.6-1.3c0.1-0.2,0.2-0.4,0.3-0.6c0.3-0.6,0.7-1.2,1.1-1.8
			c0.6-0.9,1.3-1.7,2.1-2.4c2.2-2.1,4.9-3.7,8.1-4.4c0.3-0.1,0.7-0.2,1-0.2c0.3-0.1,0.7-0.1,1.1-0.1c0.4,0,0.7-0.1,1-0.1
			c0.3,0,0.7,0,1,0c-0.4-0.5-0.7-1.1-0.8-1.5c0-0.2-0.1-0.4,0-0.6c0-0.1,0-0.1,0-0.2c0-0.1,0.1-0.2,0.1-0.3c0.1-0.1,0.1-0.2,0.2-0.2
			c0.1-0.1,0.1-0.1,0.2-0.2c0.5-0.3,1.1-0.1,1.7,0.5c0.1,0.1,0.1,0.1,0.2,0.2c0.1,0.1,0.1,0.1,0.2,0.2c0.1,0.2,0.2,0.3,0.3,0.5
			c0.2,0.2,0.3,0.5,0.5,0.8c0.1,0.1,0.1,0.2,0.2,0.3c0,0.1,0.1,0.2,0.2,0.3l0,0c-0.7-2.4-0.7-4.4,0.8-4.5c0.4,0,0.7,0.2,0.9,0.6
			c0.1,0.1,0.1,0.2,0.1,0.3c0.1,0.3,0.2,0.6,0.2,1c0,0.1,0,0.1,0,0.2c0.1-0.2,0.3-0.5,0.4-0.7c0.3-0.4,0.6-0.9,0.9-1.3
			c0.2-0.2,0.3-0.4,0.5-0.6c2.1-2.5,5-4.4,8.5-5.2c0.9-0.2,1.8-0.3,2.6-0.4c-0.2-4.1,2.5-7.8,6.6-8.8c0.4-0.1,0.8-0.2,1.3-0.2l0,0
			c0.1,0,0.3,0,0.4,0c0.9,0,1.8,0,2.7,0.3l0,0c0.2,0,0.4,0.1,0.5,0.2c0.3,0.1,0.6,0.2,0.9,0.4c0.2,0.1,0.5,0.2,0.7,0.4
			c-0.7-2-0.8-3.5,0.5-3.8c1.2-0.2,1.7,1.6,1.9,3.7c0.3-2.5,1-4.4,2.5-3.9c1.1,0.4,0.7,2.3-0.2,4.2c1.4-0.8,2.8-1.3,4.4-1.7
			c9.3-2.2,18.7,3.1,21.5,12.1c0.2-1.7,0.9-2.9,2-2.6c1.2,0.3,0.9,2.2,0.2,4.1c1.3-2.2,2.8-3.6,3.9-2.5c0.5,0.5,0.3,1.3-0.4,2.1
			c7.9-1.3,15.5,3,18.5,10.2c3-0.6,5.9-0.2,8.5,0.9c4.1,1.8,7.3,5.4,8.3,10C498.8,723.6,494,731.3,486.2,733.1z"/>
		<path class="st6" d="M428.1,710.4c-4.5-3.6-10.1-5.8-16.3-5.8c-2.1,0-4.1,0.2-6.1,0.7c0.9-2.1,0.9-3.9-0.6-4.4
			c-0.6-0.2-1.2,0.1-1.7,0.6c-0.8,0.8-1.4,2.4-1.8,4.1c0.1-3.5-0.7-6.3-2.8-5.9c-0.3,0.1-0.6,0.2-0.8,0.5c-0.6,0.6-0.7,1.6-0.6,2.9
			c-1.2-1.3-2.5-2.4-4-3.4c-3.8-2.6-8.4-4.1-13.4-4.1c-1.3,0-2.6,0.1-3.9,0.3c-1.1-5.8-6.3-10.3-12.5-10.3c-3.5,0-6.6,1.3-8.9,3.6
			c0.3-3-0.2-5.3-2.1-5.2c-0.4,0-0.7,0.2-0.9,0.4c-0.9,0.8-1,2.8-0.7,5.1c-1.3-3.3-2.9-5.4-4.7-4.3c-0.1,0.1-0.2,0.2-0.3,0.3
			c-1.2,1.1,0.1,3.4,1.8,5.6c-2.1-0.6-4.4-0.9-6.7-0.9c-0.4,0-0.7,0-1,0s-0.6,0-0.9,0c-0.6,0.1-1.2,0.1-1.8,0.2
			c-12.4,1.7-22.1,11.9-23,24.5c-1-2.4-2.2-3.8-3.8-3c-1.6,0.8-0.5,3.5,1.1,6c-2.6-2.7-5.2-4.1-6.4-2.3c-0.6,0.9,0.1,1.9,1.3,2.9
			c-0.1,0-0.2,0-0.4,0c-20.7,0.1-37.4,11.4-37.4,25.2c0,13.9,16.9,25.2,37.8,25.2c3.1,0,6.1-0.3,9-0.7c24.1-2.2,86.8-11.8,95.9-11.8
			c13.5,0,24.5-10.4,25.7-23.5c0.1-0.8,0.1-1.5,0.1-2.3C437.4,722.5,433.7,715.3,428.1,710.4z"/>
		<path class="st6" d="M620.3,703.9c-4.5-3.6-10.1-5.8-16.3-5.8c-2.1,0-4.1,0.2-6.1,0.7c0.9-2.1,0.9-3.9-0.6-4.4
			c-0.6-0.2-1.2,0.1-1.7,0.6c-0.8,0.8-1.4,2.4-1.8,4.1c0.1-3.5-0.7-6.3-2.8-5.9c-0.3,0.1-0.6,0.2-0.8,0.5c-0.6,0.6-0.7,1.6-0.6,2.9
			c-1.2-1.3-2.5-2.4-4-3.4c-3.8-2.6-8.4-4.1-13.4-4.1c-1.3,0-2.6,0.1-3.9,0.3c-1.1-5.8-6.3-10.3-12.5-10.3c-3.5,0-6.6,1.3-8.9,3.6
			c0.3-3-0.2-5.3-2.1-5.2c-0.4,0-0.7,0.2-0.9,0.4c-0.9,0.8-1,2.8-0.7,5.1c-1.3-3.3-2.9-5.4-4.7-4.3c-0.1,0.1-0.2,0.2-0.3,0.3
			c-1.2,1.1,0.1,3.4,1.8,5.6c-2.1-0.6-4.4-0.9-6.7-0.9c-0.4,0-0.7,0-1,0s-0.6,0-0.9,0c-0.6,0.1-1.2,0.1-1.8,0.2
			c-12.4,1.7-22.1,11.9-23,24.5c-1-2.4-2.2-3.8-3.8-3c-1.6,0.8-0.5,3.5,1.1,6c-2.6-2.7-5.2-4.1-6.4-2.3c-0.6,0.9,0.1,1.9,1.3,2.9
			c-0.1,0-0.2,0-0.4,0c-20.7,0.1-37.4,11.4-37.4,25.2c0,13.9,16.9,25.2,37.8,25.2c3.1,0,6.1-0.3,9-0.7c24.1-2.2,86.8-11.8,95.9-11.8
			c13.5,0,24.5-10.4,25.7-23.5c0.1-0.8,0.1-1.5,0.1-2.3C629.6,716,625.9,708.8,620.3,703.9z"/>
		
			<linearGradient id="SVGID_2_" gradientUnits="userSpaceOnUse" x1="816.3211" y1="1018.7604" x2="816.3211" y2="546.8474" gradientTransform="matrix(1 0 0 1 0 155)">
			<stop  offset="0" style="stop-color:#009245"/>
			<stop  offset="1" style="stop-color:#7BD33F"/>
		</linearGradient>
		<path class="st8" d="M1623.4,730c17.2,3.6,5,450,5,450H982H503H0V730c142.3-19.1,460.3,8.2,506.7-3.1
			c66.9-16.2,149-24.6,237.3-24.6c91.5,0,174.2,27.5,244.3,26.3C1237.2,724.6,1375.6,677.6,1623.4,730z"/>
	</g>
</g>
<g id="DESIGNED_BY_FREEPIK">
</g>
<g class="st9">
	<g class="st10">
		<path class="st11" d="M953.6,739.5c0,1-3.9,1.9-8.9,1.9c-0.2,0-0.5,0-0.7,0h-0.1c-0.3,0-0.5,0-0.8,0c-5-0.1-8.9-0.9-8.9-1.9
			s3.9-1.9,8.9-1.9c0.3,0,0.5,0,0.8,0h0.1c0.2,0,0.5,0,0.7,0C949.7,737.6,953.6,738.4,953.6,739.5z"/>
	</g>
	<g class="st12">
		<path class="st11" d="M952.6,740c0,0.8-3.4,1.4-7.8,1.4c-0.2,0-0.4,0-0.6,0h-0.1c-0.2,0-0.5,0-0.7,0c-4.3-0.1-7.8-0.7-7.8-1.4
			c0-0.8,3.4-1.4,7.8-1.4c0.2,0,0.5,0,0.7,0h0.1c0.2,0,0.4,0,0.6,0C949.2,738.7,952.6,739.3,952.6,740z"/>
	</g>
	<g class="st10">
		<g>
			<path class="st13" d="M944.7,642.7v98.8c-0.2,0-0.5,0-0.7,0h-0.1c-0.3,0-0.5,0-0.8,0v-98.8H944.7z"/>
			<path class="st14" d="M944.7,642.7v98.8c-0.2,0-0.5,0-0.7,0v-98.8H944.7z"/>
			<path class="st15" d="M944.7,642.7v0.8c-0.9,0-1.4-0.2-1.6-0.4v-0.4L944.7,642.7L944.7,642.7z"/>
			<g>
				<circle class="st16" cx="943.8" cy="641.5" r="1.5"/>
				<path class="st14" d="M944.3,640.1c0.1,0.2,0.2,0.5,0.2,0.8c0,0.8-0.7,1.5-1.5,1.5c-0.2,0-0.3,0-0.5-0.1
					c0.3,0.4,0.7,0.7,1.3,0.7c0.8,0,1.5-0.7,1.5-1.5C945.3,640.9,944.9,640.3,944.3,640.1z"/>
				
					<ellipse transform="matrix(0.8963 -0.4434 0.4434 0.8963 -186.2317 484.7223)" class="st17" cx="943.4" cy="640.6" rx="0.5" ry="0.2"/>
			</g>
			<polygon class="st15" points="944.7,657.4 944.7,661 943,660.4 943,657.4 			"/>
			<g>
				<polygon class="st18" points="954.3,647.1 954.3,657.4 944.9,660.1 942.7,660.1 942.7,643.7 945.3,643.7 				"/>
				<rect x="942.7" y="643.7" class="st19" width="2.1" height="16.4"/>
				<polygon class="st19" points="954.3,647.1 954.3,649.5 953,648.5 				"/>
				<polygon class="st20" points="953,648.5 953,658.7 968.6,653.9 				"/>
			</g>
		</g>
		<path class="st15" d="M944.7,740.7v0.7c-0.2,0-0.5,0-0.7,0h-0.1c-0.3,0-0.5,0-0.8,0v-0.7c0.3,0,0.6,0,0.9,0
			C944.2,740.8,944.4,740.8,944.7,740.7z"/>
	</g>
</g>
<path class="st2" d="M1518.6,729.1c0.3-6.9,5-13.1,12-15c1.3-0.3,2.6-0.5,3.8-0.5c-0.9-1.2-1.2-2.2-0.3-2.8c0.9-0.7,2,0.8,2.9,2.4
	c-0.6-2.3-0.6-4.1,0.8-4.2c0.8-0.1,1.1,0.8,1.3,1.9c1.7-3.2,4.4-5.7,7.9-6.9c0.5-0.2,0.9-0.3,1.4-0.4c0.8-0.3,1.7-0.3,2.4-0.4
	c0-0.2,0-0.3,0-0.5s0-0.4,0-0.6v-0.1c0-0.1,0.1-0.3,0.1-0.4c0-0.1,0-0.1,0-0.1c0.1-0.2,0.1-0.3,0.1-0.3c0-0.2,0-0.3,0.1-0.5
	s0.1-0.3,0.2-0.5c0.1-0.3,0.3-0.7,0.4-1c0.1-0.2,0.2-0.3,0.3-0.5c0.1-0.2,0.2-0.3,0.3-0.4c0-0.1,0.1-0.1,0.1-0.2
	c0.1-0.1,0.2-0.3,0.3-0.3c0.1-0.2,0.3-0.4,0.5-0.6c0.1-0.1,0.2-0.2,0.3-0.3c0.3-0.2,0.4-0.3,0.7-0.5c0.1-0.1,0.3-0.2,0.3-0.3l0,0
	c0.2-0.1,0.3-0.3,0.5-0.3l0,0c0.2-0.1,0.3-0.2,0.5-0.3c0.3-0.2,0.5-0.3,0.8-0.3c0.3-0.1,0.4-0.1,0.7-0.2c2.1-0.5,4.2-0.2,5.9,0.8
	c-0.7-1.8-0.8-3.3,0.4-3.5c1-0.3,1.5,1.5,1.8,3.3c0.2-2.3,0.8-4,2.2-3.6c1.1,0.3,0.7,2.1-0.1,3.8c0.3-0.1,0.4-0.3,0.7-0.3
	c0.3-0.2,0.4-0.3,0.7-0.3c0.1-0.1,0.1-0.1,0.2-0.1c0.2-0.1,0.4-0.2,0.6-0.3c0.7-0.3,1.3-0.5,2-0.7c8.5-2.2,17.1,2.6,19.9,10.8
	c0.3-1.6,0.8-2.7,1.8-2.4s0.8,1.9,0.3,3.8c1.2-2,2.5-3.3,3.5-2.3c0.5,0.4,0.3,1.2-0.3,1.9c7.3-1.3,14.5,2.7,17.2,9.4
	c0.3,0.7,0.6,1.3,0.8,2.1c2.1,8.4-2.9,16.9-11.3,19.1c-8.4,2.1-16.9-2.9-19.1-11.3c-0.1-0.3-0.2-0.4-0.2-0.7
	c-0.6,0.3-1.2,0.7-1.8,0.9c-0.8,0.3-1.8,0.7-2.7,0.9c-0.2,0.1-0.4,0.2-0.6,0.2c-4.8,1.1-9.5-0.1-13.2-2.7c-1.8,4-5.4,7.2-9.9,8.4
	c-1.8,0.5-3.5,0.6-5.3,0.4c-0.1,0.7-0.3,1.3-0.5,2c-0.1-0.4-0.2-0.8-0.3-1.3c0-0.3-0.1-0.5-0.1-0.8c-1.5,0.8-3.1,1.3-4.8,1.5
	c-2.7,0.4-5.3,0.3-7.7-0.5c-2.4-0.8-4.8-2-6.7-3.7c-2.1,3.6-5.5,6.4-9.7,7.4c-0.2-0.3-0.3-0.6-0.4-0.8c-0.2-0.4-0.3-0.8-0.5-1.1
	c-0.2-0.3-0.3-0.6-0.3-0.8c0-0.1-0.1-0.3-0.1-0.3c-0.1-0.3-0.2-0.5-0.3-0.8C1518.6,732.1,1518.4,730.6,1518.6,729.1z"/>
<path class="st6" d="M1498.7,732.9c38.8,15.9,62.6,23.4,89.3,19.4c3.7-3.5,5.8-7.4,5.8-11.5c0-0.8-0.1-1.5-0.2-2.3
	c0.1-1,0.2-2,0.2-3c0-11.5-9.5-21.2-22.3-23.9v-0.1c-0.6-0.2-1.2-0.3-1.8-0.5c-1.5-0.3-3.1-0.3-4.7-0.2c0.7-1.1,1-2.1,0.5-2.8
	c-0.1-0.3-0.3-0.5-0.7-0.7c-1.2-0.5-2.3,1-3.2,2.9c0.3-1.6,0.2-2.9-0.2-3.7c-0.3-0.6-0.7-1-1.4-0.9c-0.9,0-1.3,1.1-1.3,2.6
	c-2.8-4.3-7.4-7.4-12.8-8.2c-1-0.2-2-0.2-3-0.2c-0.1-1.5-0.5-2.9-1.1-4.1c-1.4-2.9-4.1-5-7.6-5.6c-2.7-0.4-5.3,0.3-7.3,1.7
	c0.3-1.4,0.4-2.6,0-3.4c-0.2-0.5-0.6-0.8-1.2-0.9c-1.4-0.1-1.8,2-1.9,4.3c-0.2-1-0.5-1.9-0.9-2.6c-0.6-1.3-1.4-2-2.4-1.5
	c-1.2,0.4-0.7,2.2,0.2,4.1c0.1,0.2,0.2,0.5,0.4,0.7c-0.5-0.1-0.9-0.3-1.4-0.5c-0.2,0-0.5-0.1-0.7-0.2c-0.2-0.1-0.5-0.1-0.7-0.2
	c0.1,0.1,0.2,0.2,0.2,0.2c0,0-0.1,0-0.1,0c-0.8-0.3-1.6-0.5-2.5-0.6c-4.1-0.7-8.1-0.1-11.7,1.5c-3.1,1.3-5.9,3.4-8,6
	c-2.1,2.5-3.5,5.4-4.3,8.7c-0.5-2-1.3-3.2-2.6-2.8c-1.3,0.4-0.8,2.6,0.2,4.8c-1.8-2.4-3.6-3.9-4.8-2.6c-0.6,0.6-0.2,1.5,0.6,2.4
	c-4-0.3-7.9,0.6-11.2,2.4c-3.4,1.8-5.7,4.8-8,8c-1.8,2.5-2.9,5-3.4,7.5C1470.6,725.5,1482.1,726.1,1498.7,732.9z"/>
</svg>
