<?xml version="1.0" encoding="utf-8"?>
<!-- Generator: Adobe Illustrator 21.0.0, SVG Export Plug-In . SVG Version: 6.00 Build 0)  -->
<svg version="1.1" id="Слой_1" xmlns="http://www.w3.org/2000/svg" xmlns:xlink="http://www.w3.org/1999/xlink" x="0px" y="0px"
	 viewBox="0 0 512 512" style="enable-background:new 0 0 512 512;" xml:space="preserve">
<style type="text/css">
	.st0{fill:#E8EDF5;}
	.st1{fill:#CCD3E2;}
	.st2{fill:#525C5C;}
	.st3{fill:#FF455A;}
	.st4{fill:#BF0032;}
	.st5{fill:#FFE54E;}
	.st6{fill:#FFBD1C;}
	.st7{fill:#CF957A;}
	.st8{fill:#B27861;}
</style>
<path class="st0" d="M305.9,156.7c-2.8-3-6.8-4.7-10.9-4.7H35c-4.1,0-8.1,1.7-10.9,4.7c-2.8,3-4.3,7.1-4.1,11.2l20,330
	c0.5,7.9,7,14.1,15,14.1h220c7.9,0,14.5-6.2,15-14.1l20-330C310.2,163.8,308.8,159.7,305.9,156.7z"/>
<path class="st1" d="M290,497.9l20-330c0.2-4.1-1.2-8.2-4.1-11.2c-2.8-3-6.8-4.7-10.9-4.7H165v360h110
	C282.9,512,289.5,505.8,290,497.9z"/>
<path class="st2" d="M165,122c-2.8,0-5.6-0.8-8.2-2.4c-6.9-4.5-8.9-13.8-4.4-20.8l60-92C215.2,2.6,219.9,0,225,0h60
	c8.3,0,15,6.7,15,15s-6.7,15-15,15h-51.9l-55.6,85.2C174.7,119.6,169.9,122,165,122z"/>
<path class="st3" d="M315,182H15c-8.3,0-15-6.7-15-15v-60c0-8.3,6.7-15,15-15h300c8.3,0,15,6.7,15,15v60
	C330,175.3,323.3,182,315,182z"/>
<path class="st4" d="M315,92H165v90h150c8.3,0,15-6.7,15-15v-60C330,98.7,323.3,92,315,92z"/>
<path class="st5" d="M447,392H223c-12,0-27.2-8.3-33.4-18.6c-20.9-35.1,4.1-71.4,37.4-71.4h224c12,0,27.2,8.3,33.4,18.6
	C505.2,355.7,480.3,392,447,392z"/>
<path class="st6" d="M492,347c0-24.8-20.2-45-45-45H337v90h110C471.8,392,492,371.8,492,347z"/>
<path class="st7" d="M497,332H177c-8.3,0-15-6.7-15-15c0-52.4,42.6-95,95-95h160c52.4,0,95,42.6,95,95C512,325.3,505.3,332,497,332z
	"/>
<path class="st8" d="M417,222h-80v110h160c8.3,0,15-6.7,15-15C512,264.6,469.4,222,417,222z"/>
<path class="st3" d="M447,452H227c-24.8,0-45-20.2-45-45s20.2-45,45-45h220c24.8,0,45,20.2,45,45S471.8,452,447,452z"/>
<path class="st4" d="M447,452c24.8,0,45-20.2,45-45s-20.2-45-45-45H337v90H447z"/>
<path class="st7" d="M437,512H237c-41.4,0-75-33.6-75-75c0-8.3,6.7-15,15-15h320c8.3,0,15,6.7,15,15C512,478.4,478.4,512,437,512z"
	/>
<path class="st8" d="M497,422H337v90h100c41.4,0,75-33.6,75-75C512,428.7,505.3,422,497,422z"/>
<path class="st3" d="M60,245c-12.6,0-24.4,3.1-34.8,8.6l8.3,136.6c8.2,3.1,17.2,4.8,26.5,4.8c41.4,0,75-33.6,75-75S101.4,245,60,245
	z"/>
</svg>
