<?xml version="1.0" encoding="utf-8"?>
<!-- Generator: Adobe Illustrator 21.0.0, SVG Export Plug-In . SVG Version: 6.00 Build 0)  -->
<svg version="1.1" id="Capa_1" xmlns="http://www.w3.org/2000/svg" xmlns:xlink="http://www.w3.org/1999/xlink" x="0px" y="0px"
	 viewBox="0 0 512 512" style="enable-background:new 0 0 512 512;" xml:space="preserve">
<style type="text/css">
	.st0{fill:#7BD33F;}
	.st1{fill:#2B4D66;}
	.st2{fill:#DD636E;}
	.st3{fill:#DA4A54;}
	.st4{fill:#ECC373;}
	.st5{fill:#DAB46B;}
	.st6{opacity:0.3;}
	.st7{fill:#FFFFFF;}
	.st8{fill:#F1F1F4;}
	.st9{fill:#DDDAEC;}
	.st10{fill:#D0CEE7;}
</style>
<g>
	<ellipse class="st0" cx="256" cy="402" rx="256" ry="104.7"/>
	<path class="st1" d="M123.9,363.5c-41.3,4.7-71.6,20.2-71.6,38.6c0,18.4,30.3,33.9,71.6,38.6c8.4,1,17.2-10.2,26.3-10.2
		c9.1,0,17.9,11.2,26.3,10.2c41.3-4.7,71.6-20.2,71.6-38.6c0-18.4-30.3-33.9-71.6-38.6"/>
	<path class="st2" d="M353.5,119.7c-53.4,43.3-102.2,65.7-135.1,77.1c-26.1,9.1-42,11.1-42,11.1l-28.7-68.4l28.7-108.2
		c0,0,8,1,21.9,4.9C228.8,44.6,287.8,66.3,353.5,119.7z"/>
	<path class="st3" d="M218.5,196.8c-26.1,9.1-42,11.1-42,11.1l-28.7-68.4l28.7-108.2c0,0,8,1,21.9,4.9
		C198.5,91.6,200.3,155.8,218.5,196.8z"/>
	<path class="st4" d="M176.5,5.2v435.4c-8.4,1-17.2,1.5-26.3,1.5c-0.8,0-1.6,0-2.4,0c-8.3-0.1-16.2-0.6-23.9-1.5V5.2L176.5,5.2z"/>
	<path class="st5" d="M147.7,5.2v436.8c-8.3-0.1-16.2-0.6-23.9-1.5V5.2L147.7,5.2z"/>
	<g class="st6">
		<path class="st7" d="M265,363.6c-4.3,0-7.7-3.5-7.7-7.7c0-19.4-22.4-27.1-22.6-27.2c-4-1.4-6.2-5.7-4.9-9.8c1.4-4,5.7-6.2,9.8-4.9
			c0.3,0.1,8.3,2.8,16.3,9.1c3.6,2.8,6.7,6,9.2,9.4c2.5-3.4,5.5-6.5,9.2-9.4c7.9-6.2,15.9-8.9,16.3-9.1c4-1.3,8.4,0.8,9.8,4.9
			c1.3,4-0.8,8.4-4.9,9.8c-1,0.3-22.6,8-22.6,27.2C272.7,360.1,269.3,363.6,265,363.6L265,363.6z"/>
		<path class="st7" d="M353.5,475.6c-4.3,0-7.7-3.5-7.7-7.7c0-19.4-22.4-27.1-22.6-27.2c-4-1.3-6.2-5.7-4.9-9.8
			c1.4-4,5.7-6.2,9.8-4.9c0.3,0.1,8.3,2.8,16.3,9.1c3.6,2.8,6.7,6,9.2,9.4c2.5-3.4,5.5-6.5,9.2-9.4c7.9-6.2,15.9-8.9,16.3-9.1
			c4-1.3,8.4,0.8,9.8,4.9c1.3,4-0.8,8.4-4.9,9.8c-1,0.3-22.6,8-22.6,27.2C361.2,472.2,357.8,475.6,353.5,475.6L353.5,475.6z"/>
		<path class="st7" d="M414.5,444.3c-4.3,0-7.7-3.5-7.7-7.7c0-19.2-21.7-26.9-22.6-27.2c-4-1.4-6.2-5.8-4.8-9.8s5.7-6.2,9.7-4.9
			c0.3,0.1,8.3,2.8,16.3,9.1c3.6,2.8,6.7,6,9.2,9.4c2.5-3.4,5.5-6.5,9.2-9.4c7.9-6.2,15.9-8.9,16.3-9.1c4-1.3,8.4,0.8,9.8,4.9
			c1.3,4-0.8,8.4-4.9,9.8c-1,0.3-22.6,8-22.6,27.2C422.3,440.8,418.8,444.3,414.5,444.3z"/>
	</g>
	<g>
		<circle class="st8" cx="391.9" cy="292.3" r="52.3"/>
		<path class="st9" d="M405.8,342.7c-4.4,1.2-9.1,1.9-13.9,1.9c-28.9,0-52.3-23.4-52.3-52.3s23.4-52.3,52.3-52.3
			c4.8,0,9.5,0.7,13.9,1.9c-22.1,6.1-38.3,26.4-38.3,50.4C367.5,316.4,383.7,336.6,405.8,342.7L405.8,342.7z"/>
		<g>
			<path class="st10" d="M416.5,319.2H416c-4.3,0-7.7-3.5-7.7-7.7s3.5-7.7,7.7-7.7h0.5c4.3,0,7.7,3.5,7.7,7.7
				S420.8,319.2,416.5,319.2z"/>
			<path class="st10" d="M397.6,329.8h-0.5c-4.3,0-7.7-3.5-7.7-7.7s3.5-7.7,7.7-7.7h0.5c4.3,0,7.7,3.5,7.7,7.7
				S401.9,329.8,397.6,329.8z"/>
			<path class="st10" d="M398.1,310.3h-0.5c-4.3,0-7.7-3.5-7.7-7.7s3.5-7.7,7.7-7.7h0.5c4.3,0,7.7,3.5,7.7,7.7
				S402.4,310.3,398.1,310.3z"/>
		</g>
	</g>
</g>
</svg>
