<?xml version="1.0" encoding="utf-8"?>
<!-- Generator: Adobe Illustrator 21.0.0, SVG Export Plug-In . SVG Version: 6.00 Build 0)  -->
<svg version="1.1" id="Слой_1" xmlns="http://www.w3.org/2000/svg" xmlns:xlink="http://www.w3.org/1999/xlink" x="0px" y="0px"
	 viewBox="0 0 573.1 452.8" style="enable-background:new 0 0 573.1 452.8;" xml:space="preserve">
<style type="text/css">
	.st0{fill:#F0C419;}
	.st1{fill:#0052C2;}
	.st2{fill:#00204C;}
	.st3{fill:#E8EDF5;}
	.st4{fill:#E64C3C;}
	.st5{fill:#C03A2B;}
	.st6{fill:#FFFFFF;}
	.st7{fill:#CCD3E2;}
	.st8{fill:#E7F9F9;}
	.st9{fill:#24AE5F;}
	.st10{fill:#ECF0F1;}
</style>
<g>
	<g>
		<path class="st0" d="M215.9,88.6h23V197h-23V88.6z"/>
		<path class="st0" d="M397.5,90.4l21.8-7.2l36.2,110.1l-21.8,7.2L397.5,90.4z"/>
		<path class="st0" d="M243.8,185.5h-32.9c-13.4,0-24.3,10.9-24.3,24.3v42.9h81.4v-42.9C268.1,196.4,257.2,185.5,243.8,185.5z"/>
		<path class="st0" d="M545.3,296.5v44.7c0,12.3-10,22.3-22.3,22.3H175.5c-12.3,0-22.3-10-22.3-22.3v-89.1c0-12.3,10-22.3,22.3-22.3
			h116.6c12.3,0,22.3,10,22.3,22.3v51.8c0,4.3,3.5,7.7,7.7,7.7H371c2.9,0,5.5-1.6,6.8-4.2l49.3-110c3-6,8.4-10.3,14.9-11.8
			c6.6-1.5,13.4-0.1,18.7,4.1l48,37.1C532.6,245.3,545.3,269.4,545.3,296.5z"/>
		<path class="st0" d="M545.3,296.5v44.7c0,12.3-10,22.3-22.3,22.3H348.2v-51.9H371c2.9,0,5.5-1.6,6.8-4.2l49.3-110
			c3-6,8.4-10.3,14.9-11.8c6.6-1.5,13.4-0.1,18.7,4.1l48,37.1C532.6,245.3,545.3,269.4,545.3,296.5z"/>
		<path class="st0" d="M292,363.5c0,24.9-20.1,45-45,45c-24.8,0-45-20.2-45-45c0-24.9,20.1-45,45-45
			C271.9,318.5,292,338.6,292,363.5z"/>
		<path class="st0" d="M292,363.5c0,24.9-20.1,45-45,45v-90.1C271.9,318.5,292,338.6,292,363.5z"/>
		<path class="st0" d="M504,363.5c0,24.9-20.1,45-45,45c-24.8,0-45-20.2-45-45c0-24.9,20.1-45,45-45
			C483.9,318.5,504,338.6,504,363.5z"/>
		<path class="st0" d="M504,363.5c0,24.9-20.1,45-45,45v-90.1C483.9,318.5,504,338.6,504,363.5z"/>
		<path class="st0" d="M258.6,358.2v10.1c0,6.3-5.1,11.5-11.5,11.5c-6.3,0-11.5-5.1-11.5-11.5v-10.1c0-6.3,5.1-11.5,11.5-11.5
			C253.4,346.7,258.6,351.9,258.6,358.2z"/>
		<path class="st0" d="M470.5,358.2v10.1c0,6.3-5.1,11.5-11.5,11.5c-6.3,0-11.5-5.1-11.5-11.5v-10.1c0-6.3,5.1-11.5,11.5-11.5
			C465.4,346.7,470.5,351.9,470.5,358.2z"/>
		<path class="st0" d="M487.2,94.8c0,2.5-1,4.8-2.7,6.5c-1.7,1.7-3.9,2.7-6.5,2.7H162.3c-5,0-9.1-4.1-9.1-9.1
			c0-10,4.1-19.1,10.6-25.6c6.6-6.6,15.6-10.6,25.6-10.6H451C471,58.6,487.2,74.8,487.2,94.8z"/>
		<path class="st0" d="M478.1,103.9H348.2V58.6H451c20,0,36.2,16.2,36.2,36.2c0,2.5-1,4.8-2.7,6.5
			C482.9,102.9,480.6,103.9,478.1,103.9z"/>
		<g>
			<g>
				<path class="st0" d="M258.6,358.2v10.1c0,6.3-5.1,11.5-11.5,11.5v-33.1C253.4,346.7,258.6,351.9,258.6,358.2z"/>
				<path class="st0" d="M470.5,358.2v10.1c0,6.3-5.1,11.5-11.5,11.5v-33.1C465.4,346.7,470.5,351.9,470.5,358.2z"/>
			</g>
			<g>
				<path class="st0" d="M258.6,358.2v10.1c0,6.3-5.1,11.5-11.5,11.5v-33.1C253.4,346.7,258.6,351.9,258.6,358.2z"/>
				<path class="st0" d="M470.5,358.2v10.1c0,6.3-5.1,11.5-11.5,11.5v-33.1C465.4,346.7,470.5,351.9,470.5,358.2z"/>
			</g>
			<g>
				<path class="st0" d="M258.6,358.2v10.1c0,6.3-5.1,11.5-11.5,11.5v-33.1C253.4,346.7,258.6,351.9,258.6,358.2z"/>
				<path class="st0" d="M470.5,358.2v10.1c0,6.3-5.1,11.5-11.5,11.5v-33.1C465.4,346.7,470.5,351.9,470.5,358.2z"/>
			</g>
		</g>
	</g>
	<g>
		<path class="st1" d="M215.9,88.6h23V197h-23V88.6z"/>
		<path class="st2" d="M397.5,90.4l21.8-7.2l36.2,110.1l-21.8,7.2L397.5,90.4z"/>
		<path class="st3" d="M243.8,185.5h-32.9c-13.4,0-24.3,10.9-24.3,24.3v42.9h81.4v-42.9C268.1,196.4,257.2,185.5,243.8,185.5z"/>
		<path class="st4" d="M545.3,296.5v44.7c0,12.3-10,22.3-22.3,22.3H175.5c-12.3,0-22.3-10-22.3-22.3v-89.1c0-12.3,10-22.3,22.3-22.3
			h116.6c12.3,0,22.3,10,22.3,22.3v51.8c0,4.3,3.5,7.7,7.7,7.7H371c2.9,0,5.5-1.6,6.8-4.2l49.3-110c3-6,8.4-10.3,14.9-11.8
			c6.6-1.5,13.4-0.1,18.7,4.1l48,37.1C532.6,245.3,545.3,269.4,545.3,296.5z"/>
		<path class="st5" d="M545.3,296.5v44.7c0,12.3-10,22.3-22.3,22.3H348.2v-51.9H371c2.9,0,5.5-1.6,6.8-4.2l49.3-110
			c3-6,8.4-10.3,14.9-11.8c6.6-1.5,13.4-0.1,18.7,4.1l48,37.1C532.6,245.3,545.3,269.4,545.3,296.5z"/>
		<path class="st1" d="M292,363.5c0,24.9-20.1,45-45,45c-24.8,0-45-20.2-45-45c0-24.9,20.1-45,45-45
			C271.9,318.5,292,338.6,292,363.5z"/>
		<path class="st2" d="M292,363.5c0,24.9-20.1,45-45,45v-90.1C271.9,318.5,292,338.6,292,363.5z"/>
		<path class="st1" d="M504,363.5c0,24.9-20.1,45-45,45c-24.8,0-45-20.2-45-45c0-24.9,20.1-45,45-45
			C483.9,318.5,504,338.6,504,363.5z"/>
		<path class="st2" d="M504,363.5c0,24.9-20.1,45-45,45v-90.1C483.9,318.5,504,338.6,504,363.5z"/>
		<path class="st6" d="M258.6,358.2v10.1c0,6.3-5.1,11.5-11.5,11.5c-6.3,0-11.5-5.1-11.5-11.5v-10.1c0-6.3,5.1-11.5,11.5-11.5
			C253.4,346.7,258.6,351.9,258.6,358.2z"/>
		<path class="st6" d="M470.5,358.2v10.1c0,6.3-5.1,11.5-11.5,11.5c-6.3,0-11.5-5.1-11.5-11.5v-10.1c0-6.3,5.1-11.5,11.5-11.5
			C465.4,346.7,470.5,351.9,470.5,358.2z"/>
		<path class="st3" d="M487.2,94.8c0,2.5-1,4.8-2.7,6.5c-1.7,1.7-3.9,2.7-6.5,2.7H162.3c-5,0-9.1-4.1-9.1-9.1
			c0-10,4.1-19.1,10.6-25.6c6.6-6.6,15.6-10.6,25.6-10.6H451C471,58.6,487.2,74.8,487.2,94.8z"/>
		<path class="st7" d="M478.1,103.9H348.2V58.6H451c20,0,36.2,16.2,36.2,36.2c0,2.5-1,4.8-2.7,6.5
			C482.9,102.9,480.6,103.9,478.1,103.9z"/>
		<g>
			<g>
				<path class="st0" d="M258.6,358.2v10.1c0,6.3-5.1,11.5-11.5,11.5v-33.1C253.4,346.7,258.6,351.9,258.6,358.2z"/>
				<path class="st0" d="M470.5,358.2v10.1c0,6.3-5.1,11.5-11.5,11.5v-33.1C465.4,346.7,470.5,351.9,470.5,358.2z"/>
			</g>
			<g>
				<path class="st8" d="M258.6,358.2v10.1c0,6.3-5.1,11.5-11.5,11.5v-33.1C253.4,346.7,258.6,351.9,258.6,358.2z"/>
				<path class="st8" d="M470.5,358.2v10.1c0,6.3-5.1,11.5-11.5,11.5v-33.1C465.4,346.7,470.5,351.9,470.5,358.2z"/>
			</g>
		</g>
	</g>
</g>
<path id="Shape_7_" class="st9" d="M233.1,268.2c-0.1,25-5.9,49.6-17,72c-2.8,5.9-6,11.7-9.5,17.2c-0.6,1.1-1.3,2.2-2.1,3.2
	c-2.2,3.4-4.5,6.7-6.7,9.7c-12.8,17.5-28.2,33.1-45.5,46.2l-2.4,1.7l-0.6-0.4c-7.4-5.3-14.3-11.1-20.8-17.5
	c-6.6-6.3-12.8-12.9-18.6-19.9c-5.2-6.3-10.1-12.9-14.5-19.8c-0.8-1-1.4-2.1-2.1-3.2c-3.5-5.5-6.7-11.3-9.6-17.2
	c-11.1-22.4-16.9-47-17-72c0-45.9,37.2-83.2,83.2-83.2S233.1,222.3,233.1,268.2L233.1,268.2z"/>
<circle class="st8" cx="149.2" cy="265" r="35"/>
<g id="Page-1">
	<g>
		<g id="_x30_51---Home-Marker_8_">
			<g>
				<path id="Shape_26_" class="st0" d="M149.2,423.9c-1.1,0-2.2-0.4-3.1-1l-0.5-0.4c-7.7-5.4-14.9-11.4-21.6-18
					c-6.8-6.4-13.1-13.3-19.1-20.4c-5.4-6.5-10.4-13.3-14.9-20.4c-0.8-1.1-1.6-2.3-2.3-3.6c-3.6-5.7-6.8-11.5-9.7-17.5
					c-11.5-23.2-17.5-48.7-17.6-74.6c0-49,39.7-88.8,88.8-88.8S238,219,238,268.1c-0.1,25.9-6.1,51.4-17.6,74.6
					c-2.9,6.1-6.2,12-9.8,17.8c-0.6,1-1.4,2.2-2.2,3.4c-2.1,3.3-4.5,6.7-6.8,9.9c-13.3,18-29.1,34-47,47.5l-0.5,0.4l-2,1.4
					C151.2,423.6,150.2,423.9,149.2,423.9z M149.2,189c-43.4,0.4-78.4,35.7-78.3,79.1c0.1,24.3,5.8,48.3,16.6,70
					c2.9,5.8,6,11.4,9.6,16.8c0.6,1,1.2,2,1.9,3c4.4,6.8,9.2,13.3,14.3,19.5c5.7,6.9,11.8,13.4,18.3,19.6
					c5.6,5.4,11.5,10.6,17.7,15.3c16.7-12.7,31.5-27.8,43.9-44.7c2.2-3,4.4-6.2,6.6-9.5c0.7-0.9,1.3-1.9,1.9-2.9
					c3.5-5.5,6.6-11.2,9.5-17c10.8-21.8,16.5-45.8,16.6-70.1C227.6,224.7,192.6,189.3,149.2,189L149.2,189z"/>
			</g>
			<g>
				<path id="Shape_25_" class="st0" d="M149.2,423.9c-1.1,0-2.2-0.4-3.1-1l-0.5-0.4c-7.7-5.4-14.9-11.4-21.6-18
					c-6.8-6.4-13.1-13.3-19.1-20.4c-5.4-6.5-10.4-13.3-14.9-20.4c-0.8-1.1-1.6-2.3-2.3-3.6c-3.6-5.7-6.8-11.5-9.7-17.5
					c-11.5-23.2-17.5-48.7-17.6-74.6c0-49,39.7-88.8,88.8-88.8S238,219,238,268.1c-0.1,25.9-6.1,51.4-17.6,74.6
					c-2.9,6.1-6.2,12-9.8,17.8c-0.6,1-1.4,2.2-2.2,3.4c-2.1,3.3-4.5,6.7-6.8,9.9c-13.3,18-29.1,34-47,47.5l-0.5,0.4l-2,1.4
					C151.2,423.6,150.2,423.9,149.2,423.9z M149.2,189c-43.4,0.4-78.4,35.7-78.3,79.1c0.1,24.3,5.8,48.3,16.6,70
					c2.9,5.8,6,11.4,9.6,16.8c0.6,1,1.2,2,1.9,3c4.4,6.8,9.2,13.3,14.3,19.5c5.7,6.9,11.8,13.4,18.3,19.6
					c5.6,5.4,11.5,10.6,17.7,15.3c16.7-12.7,31.5-27.8,43.9-44.7c2.2-3,4.4-6.2,6.6-9.5c0.7-0.9,1.3-1.9,1.9-2.9
					c3.5-5.5,6.6-11.2,9.5-17c10.8-21.8,16.5-45.8,16.6-70.1C227.6,224.7,192.6,189.3,149.2,189L149.2,189z"/>
			</g>
			<g>
				<path id="Shape_24_" class="st0" d="M149.2,423.9c-1.1,0-2.2-0.4-3.1-1l-0.5-0.4c-7.7-5.4-14.9-11.4-21.6-18
					c-6.8-6.4-13.1-13.3-19.1-20.4c-5.4-6.5-10.4-13.3-14.9-20.4c-0.8-1.1-1.6-2.3-2.3-3.6c-3.6-5.7-6.8-11.5-9.7-17.5
					c-11.5-23.2-17.5-48.7-17.6-74.6c0-49,39.7-88.8,88.8-88.8S238,219,238,268.1c-0.1,25.9-6.1,51.4-17.6,74.6
					c-2.9,6.1-6.2,12-9.8,17.8c-0.6,1-1.4,2.2-2.2,3.4c-2.1,3.3-4.5,6.7-6.8,9.9c-13.3,18-29.1,34-47,47.5l-0.5,0.4l-2,1.4
					C151.2,423.6,150.2,423.9,149.2,423.9z M149.2,189c-43.4,0.4-78.4,35.7-78.3,79.1c0.1,24.3,5.8,48.3,16.6,70
					c2.9,5.8,6,11.4,9.6,16.8c0.6,1,1.2,2,1.9,3c4.4,6.8,9.2,13.3,14.3,19.5c5.7,6.9,11.8,13.4,18.3,19.6
					c5.6,5.4,11.5,10.6,17.7,15.3c16.7-12.7,31.5-27.8,43.9-44.7c2.2-3,4.4-6.2,6.6-9.5c0.7-0.9,1.3-1.9,1.9-2.9
					c3.5-5.5,6.6-11.2,9.5-17c10.8-21.8,16.5-45.8,16.6-70.1C227.6,224.7,192.6,189.3,149.2,189L149.2,189z"/>
			</g>
		</g>
	</g>
	<g>
		<g id="_x30_51---Home-Marker_7_">
			<g>
				<path id="Shape_23_" class="st0" d="M149.2,423.9c-1.1,0-2.2-0.4-3.1-1l-0.5-0.4c-7.7-5.4-14.9-11.4-21.6-18
					c-6.8-6.4-13.1-13.3-19.1-20.4c-5.4-6.5-10.4-13.3-14.9-20.4c-0.8-1.1-1.6-2.3-2.3-3.6c-3.6-5.7-6.8-11.5-9.7-17.5
					c-11.5-23.2-17.5-48.7-17.6-74.6c0-49,39.7-88.8,88.8-88.8S238,219,238,268.1c-0.1,25.9-6.1,51.4-17.6,74.6
					c-2.9,6.1-6.2,12-9.8,17.8c-0.6,1-1.4,2.2-2.2,3.4c-2.1,3.3-4.5,6.7-6.8,9.9c-13.3,18-29.1,34-47,47.5l-0.5,0.4l-2,1.4
					C151.2,423.6,150.2,423.9,149.2,423.9z M149.2,189c-43.4,0.4-78.4,35.7-78.3,79.1c0.1,24.3,5.8,48.3,16.6,70
					c2.9,5.8,6,11.4,9.6,16.8c0.6,1,1.2,2,1.9,3c4.4,6.8,9.2,13.3,14.3,19.5c5.7,6.9,11.8,13.4,18.3,19.6
					c5.6,5.4,11.5,10.6,17.7,15.3c16.7-12.7,31.5-27.8,43.9-44.7c2.2-3,4.4-6.2,6.6-9.5c0.7-0.9,1.3-1.9,1.9-2.9
					c3.5-5.5,6.6-11.2,9.5-17c10.8-21.8,16.5-45.8,16.6-70.1C227.6,224.7,192.6,189.3,149.2,189L149.2,189z"/>
			</g>
			<g>
				<path id="Shape_22_" class="st10" d="M149.2,423.9c-1.1,0-2.2-0.4-3.1-1l-0.5-0.4c-7.7-5.4-14.9-11.4-21.6-18
					c-6.8-6.4-13.1-13.3-19.1-20.4c-5.4-6.5-10.4-13.3-14.9-20.4c-0.8-1.1-1.6-2.3-2.3-3.6c-3.6-5.7-6.8-11.5-9.7-17.5
					c-11.5-23.2-17.5-48.7-17.6-74.6c0-49,39.7-88.8,88.8-88.8S238,219,238,268.1c-0.1,25.9-6.1,51.4-17.6,74.6
					c-2.9,6.1-6.2,12-9.8,17.8c-0.6,1-1.4,2.2-2.2,3.4c-2.1,3.3-4.5,6.7-6.8,9.9c-13.3,18-29.1,34-47,47.5l-0.5,0.4l-2,1.4
					C151.2,423.6,150.2,423.9,149.2,423.9z M149.2,189c-43.4,0.4-78.4,35.7-78.3,79.1c0.1,24.3,5.8,48.3,16.6,70
					c2.9,5.8,6,11.4,9.6,16.8c0.6,1,1.2,2,1.9,3c4.4,6.8,9.2,13.3,14.3,19.5c5.7,6.9,11.8,13.4,18.3,19.6
					c5.6,5.4,11.5,10.6,17.7,15.3c16.7-12.7,31.5-27.8,43.9-44.7c2.2-3,4.4-6.2,6.6-9.5c0.7-0.9,1.3-1.9,1.9-2.9
					c3.5-5.5,6.6-11.2,9.5-17c10.8-21.8,16.5-45.8,16.6-70.1C227.6,224.7,192.6,189.3,149.2,189L149.2,189z"/>
			</g>
		</g>
	</g>
</g>
</svg>
